<?xml version="1.0" standalone="no"?>
<!DOCTYPE svg PUBLIC "-//W3C//DTD SVG 20010904//EN"
 "http://www.w3.org/TR/2001/REC-SVG-20010904/DTD/svg10.dtd">
<svg version="1.0" xmlns="http://www.w3.org/2000/svg"
 width="965.000000pt" height="965.000000pt" viewBox="0 0 965.000000 965.000000"
 preserveAspectRatio="xMidYMid meet">

<g transform="translate(0.000000,965.000000) scale(0.100000,-0.100000)"
fill="#000000" stroke="none">
<path d="M2971 8973 c-35 -131 -17 -285 48 -418 87 -176 248 -300 499 -384
170 -57 239 -64 907 -91 606 -25 931 -58 1230 -125 60 -14 115 -25 122 -25 6
0 16 30 23 70 31 183 -67 386 -239 497 -216 140 -578 193 -1333 193 -298 0
-415 10 -630 56 -198 42 -336 97 -527 213 -46 28 -86 51 -87 51 -2 0 -8 -17
-13 -37z"/>
<path d="M3284 8027 c-217 -117 -418 -305 -581 -544 -336 -490 -417 -1113
-223 -1703 40 -123 152 -350 228 -465 375 -564 984 -870 1817 -915 453 -24
521 -30 625 -54 123 -29 208 -59 328 -120 198 -100 332 -221 557 -501 266
-330 402 -446 595 -505 93 -29 91 -17 88 -475 -3 -371 -4 -392 -23 -425 -12
-19 -35 -41 -53 -49 -23 -11 -32 -21 -32 -38 l0 -23 183 2 c180 3 182 3 185
25 2 16 -2 23 -13 23 -35 0 -77 32 -96 73 -17 39 -19 69 -18 367 l0 325 35
-40 c20 -22 133 -159 251 -305 119 -146 253 -311 299 -367 l84 -103 85 0 85 0
0 479 0 478 23 34 c12 19 37 41 54 49 22 10 33 22 33 38 0 22 0 22 -175 22
l-175 0 0 -25 c0 -14 4 -25 10 -25 5 0 25 -13 43 -30 53 -47 58 -80 55 -390
l-3 -275 -170 215 c-94 118 -226 286 -294 373 -107 135 -128 157 -152 157 -34
0 -73 44 -174 195 -86 130 -191 317 -311 557 -47 95 -92 176 -98 180 -6 4 -40
17 -76 29 -445 147 -908 344 -1245 531 -561 312 -938 694 -1058 1073 -72 228
-58 503 34 690 70 142 193 259 312 294 184 54 381 95 607 126 161 22 545 31
695 16 353 -36 765 -136 1145 -279 74 -28 136 -50 137 -48 1 1 -28 25 -65 52
-290 216 -799 397 -1322 470 -190 27 -569 25 -809 -5 -101 -12 -186 -20 -188
-17 -19 19 84 259 161 374 93 140 216 254 365 339 57 32 69 43 51 43 -14 0
-108 4 -210 10 -102 5 -336 14 -520 20 -588 19 -781 35 -948 80 -40 11 -73 20
-75 20 -1 0 -29 -15 -63 -33z m1104 -267 c36 -22 62 -72 62 -121 0 -176 -265
-187 -286 -12 -14 112 124 194 224 133z"/>
<path d="M5233 7861 c-208 -72 -387 -236 -497 -456 -25 -49 -44 -91 -42 -92 1
-2 65 2 142 8 190 16 521 5 699 -21 605 -90 1140 -310 1424 -586 47 -46 86
-82 87 -81 7 8 -66 219 -102 296 -199 421 -648 755 -1206 896 -126 32 -317 65
-376 65 -26 0 -84 -13 -129 -29z"/>
<path d="M4385 6760 c-115 -39 -194 -122 -256 -269 -64 -153 -75 -351 -30
-526 29 -112 118 -288 205 -403 81 -107 247 -273 371 -371 283 -224 700 -450
1199 -648 296 -117 850 -308 843 -291 -2 7 -41 128 -86 268 -131 409 -203 611
-291 815 -176 411 -436 783 -695 995 -297 243 -761 433 -1090 446 -92 4 -120
1 -170 -16z"/>
<path d="M2020 3287 c0 -17 9 -26 36 -36 20 -7 43 -26 55 -44 18 -30 19 -55
19 -453 0 -410 -1 -422 -21 -448 -11 -14 -35 -29 -52 -34 -25 -6 -33 -14 -35
-35 l-3 -27 440 0 439 0 6 28 c21 103 48 274 44 277 -2 3 -18 7 -34 11 -26 5
-31 1 -53 -41 -29 -56 -78 -100 -145 -131 -46 -22 -65 -24 -193 -24 l-143 0 0
418 c0 465 1 471 67 502 22 10 33 22 33 38 l0 22 -230 0 -230 0 0 -23z"/>
<path d="M3060 3285 c0 -18 5 -25 19 -25 26 0 76 -43 90 -78 8 -20 11 -143 9
-439 l-3 -411 -24 -26 c-14 -15 -39 -30 -55 -34 -24 -6 -32 -15 -34 -35 l-3
-27 444 0 444 0 27 142 c22 113 24 143 14 149 -25 16 -48 9 -62 -20 -29 -55
-70 -94 -131 -122 -58 -28 -65 -29 -217 -29 l-158 0 0 192 0 191 131 -6 c165
-8 184 -18 203 -109 6 -24 11 -28 41 -28 l35 0 0 190 0 190 -35 0 c-32 0 -35
-3 -35 -29 0 -39 -34 -78 -78 -91 -20 -5 -88 -10 -149 -10 l-113 0 0 191 0
191 163 -4 c147 -3 167 -5 210 -27 50 -24 83 -65 94 -113 5 -24 10 -28 41 -28
l35 0 -6 107 c-4 58 -7 121 -7 140 l0 33 -445 0 -445 0 0 -25z"/>
<path d="M4573 3287 c4 -14 9 -35 12 -48 4 -17 -33 -128 -123 -364 -217 -570
-224 -584 -287 -605 -27 -9 -35 -17 -35 -36 l0 -24 195 0 c183 0 195 1 195 18
0 13 -12 22 -38 30 -81 24 -91 63 -50 193 l32 99 191 0 191 0 31 -87 c18 -49
35 -99 38 -113 8 -35 -26 -76 -74 -91 -27 -8 -38 -17 -36 -28 2 -14 30 -16
253 -19 l252 -2 0 23 c0 17 -10 28 -40 41 -67 29 -94 90 -339 741 l-109 290
-132 3 -132 3 5 -24z m161 -415 c38 -103 71 -193 73 -199 4 -10 -28 -13 -142
-13 -113 0 -146 3 -143 13 3 6 33 96 68 200 34 103 65 187 69 187 3 0 37 -84
75 -188z"/>
<path d="M5398 3304 c-13 -13 6 -42 37 -57 70 -33 70 -34 70 -492 0 -463 2
-452 -76 -483 -30 -11 -39 -21 -39 -39 l0 -23 240 0 240 0 0 23 c-1 16 -12 27
-43 42 -67 32 -77 63 -77 233 l0 142 63 0 63 0 85 -137 c48 -76 107 -175 133
-220 l48 -83 189 0 189 0 0 25 c0 19 -7 26 -27 31 -16 3 -36 8 -45 10 -29 8
-140 136 -241 278 -54 76 -97 139 -95 140 2 2 24 13 49 25 183 86 247 335 123
479 -83 98 -154 112 -565 112 -174 0 -318 -3 -321 -6z m521 -115 c102 -22 161
-92 169 -200 5 -62 -9 -114 -39 -153 -28 -35 -115 -65 -214 -72 l-85 -7 0 222
0 221 60 0 c32 0 82 -5 109 -11z"/>
<path d="M2855 1878 c-5 -19 -25 -227 -25 -269 0 -33 3 -37 31 -41 17 -3 32 0
34 6 26 98 75 169 132 192 19 8 69 14 118 14 l86 0 -3 -434 -3 -434 -24 -26
c-13 -14 -36 -28 -52 -31 -22 -5 -29 -12 -29 -31 l0 -24 235 0 235 0 0 24 c0
19 -7 26 -29 31 -36 8 -69 42 -81 86 -6 19 -10 205 -10 436 l0 403 94 0 c80 0
98 -3 127 -23 46 -31 94 -96 110 -150 12 -44 14 -45 43 -40 17 3 32 7 34 8 4
3 -16 231 -24 283 l-5 32 -495 0 c-387 0 -495 -3 -499 -12z"/>
<path d="M4290 1873 c0 -9 5 -31 11 -48 10 -28 2 -55 -96 -315 -195 -517 -224
-588 -259 -625 -19 -19 -43 -35 -55 -35 -16 0 -21 -6 -21 -25 l0 -25 190 0
c179 0 190 1 190 19 0 12 -9 20 -28 24 -15 3 -40 15 -55 27 -36 28 -35 69 3
180 l28 85 189 0 188 0 32 -85 c50 -132 43 -180 -27 -201 -28 -9 -40 -18 -40
-31 0 -17 14 -18 245 -18 l245 0 0 25 c0 15 -6 25 -14 25 -31 0 -81 57 -118
136 -34 73 -173 429 -303 777 l-48 127 -128 0 c-114 0 -129 -2 -129 -17z m165
-415 c39 -106 71 -198 73 -205 3 -10 -28 -13 -143 -13 -113 0 -146 3 -142 13
3 6 34 98 69 204 35 106 65 192 68 193 3 0 37 -87 75 -192z"/>
<path d="M5150 1868 c0 -16 11 -28 32 -38 18 -8 41 -28 52 -43 20 -28 21 -40
21 -440 0 -381 -1 -415 -18 -446 -10 -18 -32 -38 -48 -44 -20 -8 -29 -18 -29
-34 l0 -23 170 0 170 0 0 23 c0 17 -8 25 -32 32 -49 15 -75 62 -83 148 -3 39
-5 193 -3 342 l3 270 170 -206 c94 -112 242 -295 330 -406 l160 -202 82 0 82
-1 3 472 c3 454 4 474 23 508 11 19 35 42 53 50 21 10 32 22 32 38 0 22 0 22
-175 22 l-175 0 0 -23 c0 -17 9 -28 32 -38 17 -8 41 -27 52 -42 20 -27 21 -45
26 -325 3 -163 4 -299 2 -301 -1 -3 -9 4 -16 15 -21 30 -441 560 -508 642
l-59 72 -175 0 c-174 0 -174 0 -174 -22z"/>
<path d="M6507 1883 c-17 -16 -3 -39 32 -56 71 -32 71 -33 71 -487 0 -451 -1
-458 -66 -482 -25 -9 -34 -18 -34 -35 l0 -23 225 0 225 0 0 23 c0 17 -9 26
-35 36 -64 23 -64 22 -65 486 -1 459 -3 447 61 483 18 11 29 25 29 40 l0 22
-218 0 c-120 0 -222 -3 -225 -7z"/>
</g>
</svg>
