<svg id="svg" version="1.1" width="1078" height="1080" viewBox="0 0 1078 1080" xmlns="http://www.w3.org/2000/svg"><path d="M322.399 170.700 C 321.109 175.137,320.857 178.957,321.261 187.950 C 322.037 205.234,327.530 220.864,337.112 233.052 C 352.709 252.893,374.274 266.003,404.500 274.022 C 426.184 279.774,433.030 280.524,504.500 284.979 C 589.006 290.247,624.317 294.672,661.286 304.627 C 666.668 306.076,671.393 306.941,671.786 306.548 C 672.179 306.155,672.660 300.480,672.855 293.937 C 673.566 270.089,666.778 254.187,649.847 240.035 C 640.741 232.424,634.241 228.702,619.839 222.852 C 589.509 210.533,557.085 206.051,498.000 206.012 C 440.859 205.974,409.515 202.188,376.873 191.382 C 364.076 187.146,344.168 177.367,333.230 169.946 C 329.221 167.226,325.516 165.000,324.998 165.000 C 324.480 165.000,323.310 167.565,322.399 170.700 M363.945 290.296 C 338.498 300.933,306.256 332.015,286.743 364.721 C 265.859 399.722,255.371 435.380,253.422 478.000 C 250.147 549.627,277.350 619.421,328.464 670.536 C 360.748 702.820,396.480 723.769,443.524 737.994 C 471.288 746.390,496.307 750.288,543.000 753.493 C 580.942 756.097,596.846 758.886,620.731 767.122 C 635.024 772.050,642.867 775.977,656.117 784.837 C 675.782 797.986,686.890 809.277,722.195 852.000 C 738.266 871.447,747.075 880.288,759.972 889.915 C 771.572 898.574,779.755 902.951,792.040 907.067 C 803.045 910.754,815.816 912.132,817.719 909.838 C 819.163 908.098,819.304 908.358,807.301 890.648 C 796.695 875.000,780.822 848.386,762.481 815.500 C 755.426 802.850,747.270 788.385,744.357 783.356 L 739.060 774.213 727.780 769.502 C 663.631 742.710,634.994 729.844,606.000 714.787 C 539.423 680.212,508.312 656.248,479.270 617.168 C 454.584 583.950,445.681 563.853,442.774 534.782 C 440.063 507.665,446.664 482.724,462.016 462.083 C 470.811 450.257,479.685 443.132,490.801 438.973 C 502.407 434.631,534.943 429.193,562.500 426.990 C 579.293 425.647,628.471 425.652,647.046 426.998 C 691.812 430.241,735.284 439.109,777.392 453.586 C 786.132 456.591,793.481 458.852,793.723 458.610 C 794.400 457.933,780.272 447.572,771.416 442.252 C 767.062 439.636,756.075 433.807,747.000 429.299 C 706.568 409.213,666.608 398.722,616.000 394.906 C 596.794 393.457,556.759 394.240,533.705 396.514 C 520.537 397.813,516.596 397.910,515.455 396.963 C 508.875 391.501,527.687 356.420,549.801 332.914 C 562.958 318.930,574.016 310.915,586.282 306.474 L 592.289 304.299 583.394 303.177 C 552.216 299.244,526.979 297.575,475.000 296.009 C 433.296 294.752,414.680 293.488,397.500 290.747 C 377.714 287.590,370.645 287.495,363.945 290.296 M604.500 314.405 C 595.466 316.499,583.540 321.557,575.597 326.662 C 566.954 332.218,553.328 345.919,546.316 356.105 C 541.561 363.013,531.000 382.764,531.000 384.750 C 531.000 385.214,534.712 385.037,539.250 384.357 C 573.557 379.216,628.260 381.057,665.500 388.608 C 680.794 391.708,707.912 399.760,722.881 405.644 C 749.415 416.074,783.379 436.057,807.298 455.309 C 813.236 460.089,818.259 464.000,818.459 464.000 C 819.165 464.000,816.104 452.405,813.444 445.000 C 803.070 416.131,777.979 384.876,746.165 361.195 C 706.113 331.382,663.797 314.786,624.500 313.479 C 614.604 313.150,608.741 313.421,604.500 314.405 M491.768 321.548 C 499.312 324.700,503.000 330.099,503.000 337.990 C 503.000 346.938,496.749 355.260,488.078 357.859 C 483.385 359.264,481.540 359.278,476.723 357.940 C 460.614 353.467,458.238 329.536,473.168 322.146 C 478.370 319.571,486.418 319.312,491.768 321.548 M494.300 457.862 C 483.651 461.541,474.122 470.997,467.455 484.500 C 461.393 496.777,459.660 505.326,459.652 523.000 C 459.644 540.176,461.514 550.565,467.211 564.988 C 474.396 583.178,490.216 606.516,508.500 625.894 C 554.516 674.666,643.689 723.567,764.000 766.008 C 773.075 769.209,781.360 772.168,782.411 772.583 C 784.738 773.502,785.527 776.244,774.186 744.000 C 748.322 670.463,726.729 622.118,702.279 583.000 C 668.437 528.858,625.159 492.842,566.500 470.006 C 554.999 465.528,539.432 461.520,520.000 458.032 C 506.109 455.538,501.120 455.505,494.300 457.862 M0.000 1078.500 C 0.000 1079.831,60.556 1080.000,539.000 1080.000 C 1017.444 1080.000,1078.000 1079.831,1078.000 1078.500 C 1078.000 1077.169,1017.444 1077.000,539.000 1077.000 C 60.556 1077.000,0.000 1077.169,0.000 1078.500 " stroke="none" fill="black" fill-rule="evenodd"/></svg>
